<svg width="106" height="32" viewBox="0 0 106 32" fill="none" xmlns="http://www.w3.org/2000/svg">
<path d="M23.8603 25.5424C23.8157 25.5464 23.7732 25.5505 23.7286 25.5546C23.7205 25.5546 23.7145 25.5566 23.7064 25.5566C23.6112 25.5668 23.516 25.5729 23.4208 25.577C23.3783 25.579 23.3358 25.581 23.2933 25.5831C23.2649 25.5851 23.2366 25.5851 23.2082 25.5872C23.1657 25.5892 23.1211 25.5912 23.0766 25.5912H23.0685C23.0097 25.5912 22.951 25.5933 22.8943 25.5933C22.3435 25.5933 21.7906 25.5444 21.252 25.4467C21.2236 25.4426 21.1973 25.4365 21.171 25.4304C20.3589 27.6576 18.2285 29.2496 15.7337 29.2496C13.2509 29.2496 11.1286 27.6718 10.3085 25.4609C10.3044 25.4508 10.3004 25.4406 10.2963 25.4324C10.2214 25.2248 10.1546 25.011 10.104 24.7932C10.0938 24.7545 10.0857 24.7138 10.0756 24.6731C10.0351 24.4837 10.0027 24.2903 9.98042 24.0949C9.97637 24.0644 9.97435 24.0338 9.9703 24.0013C9.96422 23.9361 9.95815 23.8689 9.9541 23.8038C9.95208 23.7732 9.95004 23.7427 9.94802 23.7122C9.94397 23.6185 9.93992 23.5228 9.93992 23.4292C9.93992 23.3722 9.94195 23.3152 9.94195 23.2602C9.94195 23.2317 9.94397 23.2032 9.946 23.1747C9.94802 23.1299 9.95005 23.0872 9.95207 23.0424C9.95207 23.0363 9.95207 23.0302 9.95207 23.0241C9.95207 23.0159 9.9541 23.0057 9.9541 22.9976C9.95815 22.9528 9.9622 22.906 9.96625 22.8612C9.96828 22.8408 9.9703 22.8205 9.97233 22.8022C9.97638 22.7594 9.98245 22.7167 9.98852 22.6739C9.99257 22.6373 9.99865 22.5986 10.0047 22.5619C10.0088 22.5294 10.0148 22.4947 10.0209 22.4622C10.027 22.4316 10.031 22.4011 10.0371 22.3706C10.0432 22.3319 10.0513 22.2952 10.0594 22.2566C10.0635 22.2321 10.0695 22.2077 10.0756 22.1833C10.0837 22.1507 10.0898 22.1161 10.0979 22.0835C10.1161 22.0123 10.1343 21.939 10.1526 21.8677C10.1566 21.8555 10.1586 21.8433 10.1627 21.8311C10.1829 21.7618 10.2032 21.6926 10.2255 21.6234C10.2376 21.5868 10.2498 21.5522 10.2619 21.5155C10.268 21.4952 10.2761 21.4768 10.2822 21.4565C10.2984 21.4076 10.3166 21.3588 10.3368 21.3119C10.3571 21.257 10.3814 21.202 10.4037 21.147L10.428 21.0921C10.4543 21.031 10.4826 20.9719 10.511 20.9129C10.5171 20.8987 10.5231 20.8864 10.5292 20.8742C10.5312 20.8702 10.5333 20.8681 10.5333 20.864C11.0983 19.7138 12.0298 18.7773 13.174 18.2093C13.257 18.0159 13.3279 17.8185 13.3846 17.6189C13.417 17.5049 13.4413 17.4072 13.4595 17.3176L13.4615 17.3095C13.5385 16.9593 13.577 16.599 13.577 16.2366C13.577 15.8743 13.5385 15.5139 13.4615 15.1637L13.4595 15.1556C13.4413 15.066 13.417 14.9683 13.3846 14.8502C13.3522 14.7342 13.3137 14.6202 13.2732 14.5123C13.2428 14.4268 13.2084 14.3433 13.174 14.2619C12.0298 13.6939 11.0983 12.7574 10.5333 11.6072C10.4199 11.5583 10.3044 11.5135 10.187 11.4728C10.0695 11.4321 9.95005 11.3975 9.83057 11.3649C9.79007 11.3547 9.74956 11.3445 9.70906 11.3344C9.66856 11.3242 9.62604 11.316 9.58554 11.3059C9.54301 11.2957 9.50048 11.2875 9.45796 11.2814C9.42353 11.2753 9.39113 11.2713 9.35873 11.2651C9.34658 11.2631 9.33442 11.2611 9.32227 11.259C9.29392 11.255 9.26355 11.2489 9.23317 11.2468C9.19469 11.2407 9.15824 11.2366 9.11977 11.2326C9.10762 11.2305 9.09547 11.2285 9.08534 11.2285C9.03067 11.2224 8.97599 11.2183 8.91929 11.2143C8.91929 11.2143 8.91928 11.2143 8.91726 11.2143C8.86866 11.2102 8.82208 11.2081 8.77348 11.2061C8.75931 11.2061 8.74513 11.2041 8.72893 11.2041C8.67425 11.202 8.6216 11.2 8.56693 11.2C8.34214 11.2 8.11736 11.2163 7.8946 11.2448C7.76297 11.2611 7.63134 11.2855 7.50376 11.314C8.06471 13.362 9.3648 15.1027 11.0962 16.2326C9.3648 17.3624 8.06673 19.1031 7.50376 21.1511C7.49971 21.1654 7.49566 21.1816 7.49161 21.1959C7.43086 21.4178 7.38023 21.6438 7.33973 21.8718C7.33568 21.884 7.33568 21.8962 7.33366 21.9105C7.33366 21.9125 7.33365 21.9145 7.33163 21.9166C7.3215 21.9776 7.31138 22.0387 7.30125 22.1018C7.2972 22.1283 7.29518 22.1548 7.29113 22.1812C7.281 22.2484 7.2729 22.3156 7.2648 22.3828C7.26075 22.4133 7.2567 22.4438 7.25265 22.4723C7.24657 22.5253 7.24253 22.5762 7.23645 22.6291C7.23443 22.6454 7.2324 22.6596 7.2324 22.6759C7.22228 22.7879 7.2162 22.9019 7.21012 23.0139C7.2081 23.0363 7.2081 23.0587 7.2081 23.079C7.20405 23.1951 7.2 23.3091 7.2 23.4251C7.2 23.4801 7.2 23.533 7.20202 23.588V23.5921C7.20202 23.6328 7.20405 23.6755 7.20608 23.7162C7.20608 23.7447 7.2081 23.7712 7.21012 23.7997C7.21012 23.816 7.21215 23.8343 7.21215 23.8506C7.21215 23.8811 7.21417 23.9137 7.2162 23.9443C7.2162 23.9585 7.21823 23.9748 7.22025 23.989C7.22025 23.9951 7.22227 24.0033 7.22227 24.0094C7.2243 24.0542 7.22835 24.0969 7.2324 24.1397C7.23443 24.158 7.23443 24.1784 7.23645 24.1967C7.23645 24.1987 7.23645 24.2008 7.23645 24.2028C7.2405 24.2435 7.24253 24.2822 7.2486 24.3209C7.2486 24.327 7.25063 24.3331 7.25063 24.3392C7.25468 24.3738 7.25873 24.4105 7.26278 24.4451L7.27493 24.5489C7.281 24.6018 7.2891 24.6527 7.2972 24.7056C7.3377 24.9825 7.39238 25.2533 7.45921 25.522C8.39277 29.2394 11.7463 32 15.7296 32C19.7129 32 23.0685 29.2394 24 25.522C23.9555 25.5281 23.9129 25.5322 23.8684 25.5363C23.8684 25.5424 23.8643 25.5424 23.8603 25.5424Z" fill="#041C2C"/>
<path d="M99.2 6.4H95.2V24H99.2V6.4Z" fill="#041C2C"/>
<path d="M105.6 6.4H102.4V24H105.6V6.4Z" fill="#041C2C"/>
<path d="M93.6 17.4355C93.6 13.0528 90.8298 11.2 87.7607 11.2C84.2801 11.2 81.6 13.6858 81.6 17.5759V17.7645C81.6 21.6798 84.233 24 87.8508 24C91.1247 24 93.1864 22.4993 93.5754 19.8752H90.4388C90.232 20.9064 89.4765 21.5855 87.943 21.5855C86.133 21.5855 85.0581 20.4138 84.966 18.3745H93.598V17.4355H93.6ZM85.0131 16.2869C85.2649 14.5766 86.2722 13.5433 87.7607 13.5433C89.3188 13.5433 90.2565 14.4341 90.3712 16.2869H85.0131Z" fill="#041C2C"/>
<path d="M50.9717 8.56028C50.8195 8.72009 50.6331 8.8 50.4105 8.8C50.1879 8.8 49.9976 8.72009 49.8397 8.56028C49.6799 8.40047 49.6 8.21022 49.6 7.98953C49.6 7.77455 49.6799 7.59001 49.8397 7.43401C49.9995 7.278 50.1898 7.2 50.4105 7.2C50.6312 7.2 50.8195 7.278 50.9717 7.43401C51.1239 7.59001 51.2 7.77455 51.2 7.98953C51.2 8.21022 51.1239 8.40047 50.9717 8.56028Z" fill="#041C2C"/>
<path d="M50.4 11.2H49.6V24H50.4V11.2Z" fill="#041C2C"/>
<path d="M36.8 24V7.2H38.0899V22.945H46.4V24H36.8Z" fill="#041C2C"/>
<path d="M25.4273 7.46549C25.4335 7.51148 25.4376 7.55957 25.4438 7.60556V7.60765C25.448 7.65364 25.4542 7.70172 25.4583 7.7498C25.4624 7.7958 25.4666 7.84178 25.4686 7.88777C25.4728 7.9484 25.4769 8.00903 25.481 8.06965C25.4831 8.11355 25.4851 8.15745 25.4872 8.20135C25.4893 8.23062 25.4893 8.25989 25.4914 8.28915C25.4934 8.33305 25.4955 8.37904 25.4955 8.42504V8.4334C25.4955 8.49402 25.4975 8.55465 25.4975 8.61318C25.4975 9.1818 25.448 9.75251 25.3488 10.3086C25.3447 10.3379 25.3385 10.365 25.3323 10.3922C27.59 11.2326 29.2073 13.4297 29.2073 16.0052C29.2073 18.863 27.2161 21.2587 24.5618 21.844C24.1549 21.9339 23.7335 21.982 23.3018 21.982C22.74 21.982 22.1947 21.9025 21.6783 21.752C19.9824 21.2608 18.5944 20.019 17.8941 18.4051C17.8446 18.2922 17.7991 18.1773 17.7578 18.0602C17.7082 17.9243 17.6628 17.7863 17.6235 17.6484C17.5905 17.5271 17.5595 17.4059 17.5327 17.2825C17.4438 16.8707 17.3963 16.4442 17.3963 16.0073C17.3963 15.5704 17.4438 15.1418 17.5327 14.7321C17.5574 14.6067 17.5884 14.4854 17.6235 14.3663C17.6979 14.105 17.7888 13.852 17.8941 13.6074C17.9292 13.528 17.9644 13.4506 18.0036 13.3733C18.5799 12.19 19.5301 11.2284 20.6992 10.6452C20.7839 10.4486 20.8541 10.248 20.914 10.0389C21.0441 9.58109 21.1102 9.10236 21.1102 8.61945C21.1102 8.586 21.1102 8.55256 21.1102 8.51911C21.1102 8.49403 21.1082 8.46894 21.1082 8.44385C21.1061 8.38531 21.1041 8.32887 21.0999 8.27034C21.0958 8.21181 21.0917 8.15536 21.0855 8.09682C21.0834 8.07592 21.0813 8.05501 21.0793 8.03202C21.0751 7.99648 21.071 7.96095 21.0648 7.92541C21.0607 7.89405 21.0565 7.86478 21.0504 7.83342C21.0504 7.83133 21.0504 7.82924 21.0504 7.82715V7.82506C21.0462 7.79579 21.0421 7.76862 21.0359 7.73935C21.0318 7.70799 21.0256 7.67873 21.0194 7.64946C21.0111 7.60556 21.0028 7.56166 20.9925 7.51776C19.1954 8.01948 17.6297 9.09191 16.4999 10.5281C16.3222 10.7518 16.157 10.9838 16.0021 11.2242C14.7152 9.21734 12.6434 7.7728 10.2329 7.33797C9.73508 7.24808 9.22282 7.2 8.70023 7.2C8.2582 7.2 7.82442 7.23345 7.40098 7.29825C3.21817 7.93377 0 11.5963 0 16.0031C0 20.1152 2.80093 23.5791 6.57268 24.5408C6.56855 24.499 6.56235 24.4592 6.55822 24.4195C6.55822 24.4153 6.55616 24.4132 6.55616 24.4091C6.55616 24.407 6.55616 24.4028 6.55616 24.4007C6.55616 24.4007 6.55616 24.4007 6.55616 24.3986C6.55202 24.3526 6.54583 24.3045 6.5417 24.2565C6.53756 24.2105 6.53344 24.1645 6.53137 24.1185C6.52724 24.0579 6.52311 23.9972 6.51898 23.9366C6.51691 23.8927 6.51485 23.8488 6.51278 23.8028C6.51072 23.7736 6.51071 23.7464 6.50865 23.7171C6.50658 23.6711 6.50452 23.6251 6.50452 23.5791V23.5729C6.50452 23.5122 6.50245 23.4516 6.50245 23.3931C6.50245 22.8245 6.55202 22.2538 6.65117 21.6977C6.6553 21.681 6.65737 21.6642 6.65944 21.6475C6.6615 21.6371 6.66357 21.6245 6.66563 21.612C4.40795 20.7716 2.7906 18.5745 2.7906 15.999C2.7906 13.1412 4.78182 10.7455 7.4361 10.1602C7.84302 10.0703 8.26439 10.0222 8.6961 10.0222C9.25793 10.0222 9.80325 10.1016 10.3196 10.2521C12.1353 10.7789 13.5957 12.165 14.2422 13.944C14.2918 14.0799 14.3372 14.2178 14.3764 14.3558C14.4095 14.4771 14.4405 14.5983 14.4673 14.7216C14.5562 15.1335 14.6037 15.5599 14.6037 15.9969C14.6037 16.4338 14.5562 16.8623 14.4673 17.2721C14.4425 17.3975 14.4116 17.5188 14.3764 17.6379C14.2794 17.9828 14.1513 18.3152 13.9964 18.6309C13.4201 19.8141 12.4699 20.7758 11.3008 21.359C11.2182 21.5534 11.1459 21.7562 11.086 21.9653C11.086 21.9653 11.086 21.9653 11.086 21.9674C10.9558 22.4252 10.8897 22.9039 10.8897 23.3868C10.8897 23.7568 10.929 24.1269 11.0075 24.4843C13.0834 23.9053 14.8515 22.5632 15.9979 20.7758C16.1528 21.0162 16.3181 21.2482 16.4957 21.4719C17.7867 23.113 19.6457 24.2795 21.7671 24.662C22.2649 24.7519 22.7772 24.8 23.2998 24.8C23.7418 24.8 24.1756 24.7666 24.599 24.7017C28.7818 24.0662 32 20.4037 32 15.9969C32 11.8911 29.1991 8.42713 25.4273 7.46549Z" fill="#041C2C"/>
<path d="M8.15996 6.4584C8.20046 6.45433 8.24096 6.45026 8.28145 6.44619C8.28348 6.44619 8.2855 6.44619 8.28753 6.44619C8.36852 6.44009 8.44951 6.43194 8.5305 6.42787C8.5386 6.42787 8.54873 6.42584 8.55683 6.42584C8.59125 6.4238 8.62567 6.42177 8.6601 6.41973C8.68034 6.41769 8.70059 6.4177 8.72084 6.41566C8.74514 6.41363 8.77146 6.41362 8.79778 6.41159C8.84435 6.40955 8.89093 6.40752 8.93952 6.40752C8.99824 6.40752 9.05696 6.40548 9.11568 6.40548C9.18453 6.40548 9.25337 6.40548 9.32221 6.40752C9.39106 6.40955 9.4599 6.41159 9.52874 6.41362C9.57936 6.41566 9.62998 6.4177 9.68061 6.42177C9.70288 6.4238 9.72515 6.4238 9.7454 6.42584C9.77375 6.42787 9.80007 6.42991 9.82842 6.43194C9.88107 6.43601 9.93169 6.44009 9.98231 6.44619C10.0431 6.4523 10.1038 6.4584 10.1625 6.46451C10.2071 6.46858 10.2516 6.47468 10.2941 6.48079C10.3205 6.48283 10.3468 6.4869 10.3731 6.49097C10.4055 6.49504 10.4379 6.49911 10.4703 6.50521C10.5108 6.51132 10.5493 6.51743 10.5898 6.52354C10.6282 6.52964 10.6647 6.53575 10.7031 6.54389C10.7193 6.54592 10.7376 6.55 10.7538 6.55203C10.7801 6.5561 10.8084 6.56221 10.8348 6.56628C11.6487 4.34156 13.7789 2.74782 16.2714 2.74782C18.7539 2.74782 20.8759 4.32528 21.6959 6.53575C21.7 6.54593 21.704 6.5561 21.7061 6.56628C21.7931 6.80239 21.864 7.04461 21.9187 7.29293L21.9268 7.3255V7.3316C21.9268 7.33567 21.9288 7.33974 21.9288 7.34381C21.947 7.42727 21.9632 7.51275 21.9774 7.59824C21.9794 7.61046 21.9814 7.62267 21.9835 7.63692C21.9855 7.64302 21.9855 7.65116 21.9855 7.65726C21.9976 7.73665 22.0078 7.81603 22.0179 7.89745C22.0179 7.90152 22.0199 7.90355 22.0199 7.90762C22.0199 7.9117 22.0219 7.9178 22.0219 7.92187C22.024 7.94426 22.026 7.96665 22.028 7.98904C22.0361 8.06842 22.0422 8.14984 22.0483 8.23126C22.0483 8.2394 22.0503 8.24754 22.0503 8.25568C22.0503 8.25772 22.0503 8.25772 22.0503 8.25976C22.0564 8.36153 22.0584 8.46533 22.0584 8.56914C22.0584 8.63224 22.0563 8.6933 22.0543 8.7564C22.0543 8.76251 22.0543 8.77064 22.0543 8.77675C22.0543 8.78896 22.0523 8.80118 22.0523 8.81135C22.0503 8.85613 22.0483 8.90091 22.0462 8.94569C22.0442 8.97012 22.0422 8.99251 22.0422 9.01693C22.0381 9.05968 22.0361 9.10242 22.03 9.14516C22.028 9.16144 22.028 9.17976 22.026 9.19604C22.0199 9.24897 22.0138 9.30189 22.0057 9.35278C22.0037 9.36295 22.0037 9.37313 22.0017 9.38534C21.9997 9.39756 21.9976 9.40773 21.9976 9.41994C21.9916 9.45455 21.9875 9.48915 21.9814 9.52579C21.9754 9.56243 21.9693 9.59703 21.9632 9.63367C21.943 9.74358 21.9207 9.85145 21.8944 9.95933C21.8923 9.96544 21.8923 9.97154 21.8903 9.97968L21.8863 9.99393C21.8721 10.053 21.8559 10.112 21.8397 10.171C21.785 10.3603 21.7223 10.5455 21.6514 10.7206C21.6332 10.7654 21.6149 10.8101 21.5967 10.8549L21.542 10.9811C21.5259 11.0157 21.5097 11.0524 21.4914 11.087C21.4854 11.0992 21.4813 11.1114 21.4732 11.1236C20.9083 12.2797 19.9748 13.2201 18.8247 13.792C18.7417 13.9834 18.6729 14.1808 18.6141 14.3843C18.5838 14.4963 18.5595 14.594 18.5392 14.6836L18.5372 14.6917C18.4603 15.0418 18.4218 15.4021 18.4218 15.7644C18.4218 16.1267 18.4603 16.4869 18.5372 16.837L18.5392 16.8452C18.5574 16.9347 18.5817 17.0324 18.6141 17.1505C18.6465 17.2645 18.685 17.3805 18.7275 17.4924L18.7296 17.5006C18.7579 17.5759 18.7883 17.6573 18.8227 17.7387C19.9688 18.3066 20.9022 19.2449 21.4671 20.397C21.5076 20.4133 21.5461 20.4296 21.5886 20.4458C21.5987 20.4519 21.6109 20.456 21.623 20.4601C21.6595 20.4743 21.6959 20.4886 21.7324 20.5008C21.8377 20.5395 21.945 20.5741 22.0543 20.6066C22.4998 20.7349 22.9635 20.8 23.4312 20.8C23.7896 20.8 24.148 20.7613 24.4943 20.684C23.9334 18.6384 22.6334 16.8961 20.9022 15.7664C22.6334 14.6367 23.9313 12.8944 24.4943 10.8488C24.5388 10.6921 24.5773 10.5333 24.6097 10.3725L24.6542 10.1527L24.6583 10.1364C24.6623 10.1201 24.6643 10.1059 24.6664 10.0896C24.6664 10.0876 24.6664 10.0855 24.6684 10.0835C24.6785 10.0224 24.6886 9.96137 24.6988 9.89827C24.7028 9.87181 24.7048 9.84535 24.7089 9.81889C24.719 9.75172 24.7271 9.68455 24.7352 9.61535C24.7393 9.58482 24.7433 9.55632 24.7474 9.52579C24.7534 9.4688 24.7595 9.4118 24.7635 9.35278C24.7635 9.35074 24.7635 9.34667 24.7635 9.34463C24.7635 9.33649 24.7656 9.32835 24.7656 9.32021C24.7757 9.20216 24.7838 9.08614 24.7899 8.96605C24.7899 8.95791 24.7899 8.94976 24.7919 8.94162C24.7939 8.88259 24.796 8.82153 24.798 8.76251C24.8 8.69941 24.8 8.63427 24.8 8.56914C24.8 8.51622 24.8 8.46126 24.798 8.40834V8.40223C24.798 8.36152 24.7959 8.32285 24.7939 8.28418C24.7939 8.26179 24.7919 8.2394 24.7919 8.21498C24.7919 8.19259 24.7899 8.16816 24.7899 8.14577C24.7899 8.13763 24.7899 8.12948 24.7878 8.12134C24.7878 8.09895 24.7858 8.07656 24.7838 8.05418C24.7838 8.03993 24.7818 8.02364 24.7797 8.0094C24.7797 8.00329 24.7777 7.99515 24.7777 7.98904C24.7757 7.94426 24.7716 7.90152 24.7676 7.85878C24.7656 7.84046 24.7656 7.8201 24.7635 7.80178C24.7635 7.79975 24.7635 7.79771 24.7635 7.79568C24.7595 7.75497 24.7575 7.71629 24.7514 7.67762C24.7514 7.67151 24.7494 7.66541 24.7494 7.6593C24.7453 7.6247 24.7413 7.59213 24.7372 7.55753C24.7372 7.5555 24.7372 7.55346 24.7372 7.55143L24.7251 7.44965C24.719 7.39673 24.7109 7.34381 24.7028 7.29293C24.6623 7.01611 24.6056 6.7454 24.5388 6.47672C23.6074 2.76004 20.2522 0 16.2694 0C12.2866 0 8.93142 2.76004 8 6.47672C8.0405 6.47265 8.08302 6.46654 8.12352 6.46247C8.13972 6.46044 8.14984 6.46044 8.15996 6.4584Z" fill="#041C2C"/>
<path d="M62.1417 11.2022H65.7089L67.868 19.8165L70.2853 11.2022H73.032L75.2143 19.8165L77.5371 11.2022H80.8L76.9286 24H73.5923L71.5044 15.9743L69.2508 24H65.8704C65.8704 24 64.1687 18.1601 63.0629 14.3705C61.7556 18.1601 59.7434 23.9978 59.7434 23.9978H57.2568L52.8 11.2H54.9193L58.5515 21.9411L62.1417 11.2022H64.1582H62.1417Z" fill="#041C2C"/>
</svg>
